<?xml version="1.0" standalone="no"?>
<!DOCTYPE svg PUBLIC "-//W3C//DTD SVG 20010904//EN"
 "http://www.w3.org/TR/2001/REC-SVG-20010904/DTD/svg10.dtd">
<svg version="1.0" xmlns="http://www.w3.org/2000/svg"
 width="400.000000pt" height="400.000000pt" viewBox="0 0 400.000000 400.000000"
 preserveAspectRatio="xMidYMid meet">
<metadata>
Created by potrace 1.11, written by Peter Selinger 2001-2013
</metadata>
<g transform="translate(0.000000,400.000000) scale(0.100000,-0.100000)"
fill="#000000" stroke="none">
<path d="M0 2000 l0 -2000 2000 0 2000 0 0 2000 0 2000 -2000 0 -2000 0 0
-2000z m1416 811 c81 -37 134 -139 115 -223 -39 -170 -245 -225 -355 -96 -92
107 -49 273 84 327 40 16 112 12 156 -8z m1321 -34 c23 -12 220 -172 437 -356
442 -374 446 -378 446 -494 0 -120 3 -116 -457 -530 -228 -204 -428 -380 -444
-390 -16 -11 -55 -21 -86 -24 -48 -4 -66 -1 -103 19 -62 34 -100 90 -107 160
-10 100 -3 109 377 449 187 167 339 307 337 311 -3 9 -489 418 -497 418 -3 0
-266 -290 -583 -644 -641 -715 -615 -691 -737 -691 -48 1 -76 7 -108 23 -25
13 -201 175 -417 383 -411 396 -420 406 -420 514 0 102 21 131 240 329 106 97
210 186 230 197 25 15 53 22 90 22 140 0 234 -130 190 -263 -15 -45 -32 -65
-146 -168 -71 -64 -128 -120 -126 -125 1 -4 106 -107 232 -228 l230 -220 29
33 c620 695 1130 1257 1154 1270 71 42 164 43 239 5z"/>
</g>
</svg>
